<?xml version="1.0" encoding="iso-8859-1"?>
<!-- Generator: Adobe Illustrator 19.0.0, SVG Export Plug-In . SVG Version: 6.00 Build 0)  -->
<svg xmlns="http://www.w3.org/2000/svg" xmlns:xlink="http://www.w3.org/1999/xlink" version="1.1" id="Layer_1" x="0px" y="0px" viewBox="0 0 504.102 504.102" style="enable-background:new 0 0 504.102 504.102;" xml:space="preserve" width="512" height="512">
<g>
	<g>
		<path style="fill:#AD7136;" d="M262.557,144.946l-25.758,53.76l2.179-54.674c2.084-38.632-10.163-80.082-27.077-117.034    l39.685-19.497C268.383,51.555,272.04,99.287,262.557,144.946z"/>
		<path style="fill:#FF3B6A;" d="M328.674,493.22c-14.8,6.88-30.05,2.51-44.32-7.32c-9.09-6.25-19.47-9.59-29.95-10.02    c-0.39,0-0.79-0.01-1.18-0.03c-11.64-0.25-23.33,3.11-33.41,10.05c-14.27,9.83-29.52,14.2-44.32,7.32    c-183.3-85.2-185.81-317.08-112.04-375.61c20.08-15.94,40.59-21.03,60.51-19.99c36.33,1.89,70.73,24.14,97.11,38.08h0.01    c12.27,6.49,22.81,11.18,31,11.18c35.46,0,114.87-87.81,188.64-29.27C514.484,176.14,511.984,408.02,328.674,493.22z"/>
		<path style="fill:#E21E56;" d="M253.224,475.85c-11.64-0.25-23.33,3.11-33.41,10.05c-14.27,9.83-29.52,14.2-44.32,7.32    c-183.3-85.2-185.81-317.08-112.04-375.61c20.08-15.94,40.59-21.03,60.51-19.99c36.33,1.89,70.73,24.14,97.11,38.08    C34.894,135.7,174.094,472.5,253.224,475.85z"/>
	</g>
	<g>
		<path d="M477.419,156.326c-1.629-3.809-6.038-5.575-9.845-3.947c-3.809,1.629-5.575,6.037-3.947,9.845    c19.655,45.955,19.881,110.515,0.591,168.484c-10.932,32.853-27.467,62.471-49.146,88.032    c-24.201,28.535-54.333,51.305-89.559,67.677c-10.918,5.074-22.989,2.884-36.902-6.694c-22.189-15.277-50.863-15.276-73.05,0    c-13.914,9.579-25.984,11.769-36.903,6.694c-37.845-17.59-69.731-42.497-94.772-74.029c-2.577-3.244-7.295-3.786-10.538-1.209    c-3.244,2.576-3.785,7.294-1.209,10.538c26.505,33.376,60.216,59.722,100.197,78.304c5.857,2.722,11.916,4.082,18.15,4.082    c10.713,0,21.948-4.014,33.581-12.024c17.02-11.717,39.016-11.718,56.038,0c18.403,12.671,35.809,15.342,51.73,7.942    c37.208-17.293,69.062-41.375,94.676-71.578c22.924-27.03,40.399-58.319,51.939-92.998    C498.85,274.143,498.454,205.509,477.419,156.326z"/>
		<path d="M25.828,233.097c1.93-49.158,17.737-90.136,42.284-109.615c47.176-37.437,96.776-10.098,136.629,11.87    c19.283,10.629,34.513,19.024,47.344,19.024c12.831,0,28.061-8.395,47.343-19.024c39.854-21.968,89.452-49.308,136.629-11.87    c4.124,3.272,8.074,7.232,11.741,11.768c2.604,3.222,7.326,3.721,10.548,1.118c3.221-2.604,3.722-7.326,1.118-10.547    c-4.359-5.393-9.097-10.133-14.083-14.089c-24.496-19.439-51.57-25.772-82.775-19.36c-25.953,5.333-49.577,18.354-70.419,29.843    c-6.918,3.813-13.668,7.532-19.83,10.529c6.518-43.09,1.827-87.032-13.766-127.917c-0.752-1.971-2.299-3.534-4.262-4.307    c-1.962-0.772-4.161-0.682-6.054,0.248l-39.68,19.5c-3.645,1.792-5.202,6.159-3.512,9.852    c16.956,37.05,26.043,72.23,26.582,102.552c-6.123-2.985-12.82-6.674-19.684-10.458c-20.843-11.489-44.466-24.51-70.419-29.843    c-31.204-6.412-58.279-0.08-82.775,19.36c-27.925,22.16-45.849,67.31-47.948,120.777c-2.258,57.515,13.347,116,43.941,164.683    c1.425,2.268,3.863,3.511,6.357,3.51c1.363,0,2.744-0.372,3.983-1.151c3.507-2.204,4.563-6.833,2.359-10.341    C38.48,343.063,23.687,287.621,25.828,233.097z M221.703,30.541l25.677-12.619c13.328,38.922,16.33,80.489,8.718,120.994    c-1.44,0.291-2.789,0.458-4.013,0.458c-1.613,0-3.432-0.278-5.413-0.772C247.303,106.267,238.92,69.976,221.703,30.541z"/>
	</g>
</g>















</svg>
